<?xml version="1.0" encoding="UTF-8"?>
<svg id="Layer_1" data-name="Layer 1" xmlns="http://www.w3.org/2000/svg" viewBox="0 0 45.5 45.5">
  <defs>
    <style>
      .cls-1, .cls-2 {
        fill: #000;
      }

      .cls-1, .cls-3 {
        stroke-width: 0px;
      }

      .cls-2 {
        stroke: #fff;
        stroke-miterlimit: 10;
      }

      .cls-3 {
        fill: #fff;
      }
    </style>
  </defs>
  <rect class="cls-2" x=".5" y=".5" width="44.5" height="44.5"/>
  <g>
    <line class="cls-1" x1="12.5" y1="33" x2="32.84" y2="12.5"/>
    <path class="cls-3" d="M12.43,32.93c2.73-3.15,6.81-7.62,9.67-10.74,3.17-3.67,6.52-7.12,10.66-9.75,0,0,.14.14.14.14-2.6,4.17-6.02,7.54-9.67,10.74,0,0-5.3,4.91-5.3,4.91-1.79,1.61-3.56,3.25-5.37,4.84l-.14-.14h0Z"/>
  </g>
  <g>
    <line class="cls-1" x1="33" y1="32.93" x2="12.79" y2="12.57"/>
    <path class="cls-3" d="M32.93,33.01c-3.11-2.74-7.52-6.83-10.6-9.69-3.63-3.18-7.03-6.53-9.61-10.68,0,0,.14-.14.14-.14,4.13,2.61,7.45,6.04,10.6,9.69,0,0,4.84,5.3,4.84,5.3,1.59,1.79,3.2,3.56,4.77,5.37l-.14.14h0Z"/>
  </g>
</svg>