<?xml version="1.0" encoding="UTF-8"?>
<svg id="Layer_1" data-name="Layer 1" xmlns="http://www.w3.org/2000/svg" viewBox="0 0 1039 191">
  <defs>
    <style>
      .cls-1 {
        fill: #fff;
        stroke-width: 0px;
      }
    </style>
  </defs>
  <path class="cls-1" d="M0,188.92v-2.08c9.82,0,18.13-2.34,25.32-7.17,6.98-4.68,10.48-10.55,10.48-17.46V28.79c0-6.9-3.51-12.85-10.48-17.46C18.2,6.63,9.82,4.3,0,4.3v-2.21h142.99v2.21c-9.82,0-18.12,2.34-25.11,7.03-6.99,4.69-10.48,10.55-10.48,17.46v133.42c0,6.91,3.57,12.75,10.48,17.46,6.97,4.75,15.28,7.17,25.11,7.17v2.08H0Z"/>
  <path class="cls-1" d="M379.44,188.92c-62.08-52.33-124.16-104.66-186.23-157v108.92c1.32,13.52,3.28,21.58,10.48,32.31,5.36,7.99,15.07,13.71,25.33,13.68v2.08h-75.1v-2.08c10.27.03,19.97-5.8,25.32-13.68,7.22-10.62,9.16-18.79,10.48-32.31V52.89c0-8.34-1.69-16.29-4.8-23.58-3.14-7.37-7.71-13.41-13.1-17.98-5.45-4.62-11.35-7.03-17.9-7.03v-2.21h96.06c53.2,44.64,106.4,89.29,159.6,133.94V50.16c-1.14-11.65-3.13-22.83-10.48-32.18-5.99-7.62-14.93-13.69-25.11-13.68v-2.21h75.11v2.21c-10.26-.03-19.28,5.99-25.33,13.68-7.35,9.35-9.34,20.53-10.48,32.18v138.76h-33.84Z"/>
  <path class="cls-1" d="M458.69,188.92v-2.08c9.82,0,18.13-2.34,25.33-7.17,6.98-4.68,10.48-10.55,10.48-17.46V28.79c0-6.9-3.51-12.85-10.48-17.46-7.12-4.71-15.5-7.03-25.33-7.03v-2.21h250.43v56.15h-3.71c-4.7-10.72-13.15-18.77-21.62-25.93-10.31-8.71-23.48-15.74-36.24-20.19-13.89-4.85-28.46-7.83-43.67-7.82h-37.77v100.06h41.05c16.06-.06,32.69-1.35,48.03-6.25,13.29-4.25,20.09-9.25,20.09-15.11h3.49v44.82h-3.49c0-5.86-6.88-10.76-20.09-14.98-15.3-4.89-31.98-6.33-48.03-6.38h-41.05v55.76c0,6.91,4.56,12.71,13.1,17.46,9.69,5.39,20.52,6.43,31.44,7.17v2.08h-151.96Z"/>
  <path class="cls-1" d="M809.11,179.01c-19.86-7.3-40.55-17.35-54.36-33.48-12.23-14.29-19.87-30.48-19.87-50.03,0-19.5,7.67-35.65,19.87-49.9,13.81-16.14,34.58-26.35,54.36-33.61C833.68,2.97,860.84,0,886.84,0c26.05,0,53.32,2.95,77.94,11.99,20,7.34,40.5,17.58,54.36,33.61,11.69,13.52,19.87,31.23,19.87,49.9,0,18.72-8.15,36.47-19.87,50.03-13.85,16.04-34.27,26.11-54.36,33.48-24.74,9.09-51.88,11.99-77.94,11.99-26,0-53.04-2.92-77.72-11.99ZM947.31,164.81c16.21-19.45,20.09-45.59,20.08-69.31,0-23.75-3.94-49.87-20.08-69.31-14.71-17.71-38.08-24.1-60.48-24.1-22.33,0-45.47,6.44-60.26,24.1-16.31,19.48-20.08,45.56-20.09,69.31,0,23.72,3.71,49.83,20.09,69.31,14.85,17.66,37.93,24.1,60.26,24.1,22.39,0,45.71-6.38,60.48-24.1Z"/>
</svg>