<?xml version="1.0" encoding="UTF-8"?>
<svg id="Layer_1" data-name="Layer 1" xmlns="http://www.w3.org/2000/svg" viewBox="0 0 1068 225.79">
  <defs>
    <style>
      .cls-1 {
        fill: #fff;
        stroke-width: 0px;
      }
    </style>
  </defs>
  <path class="cls-1" d="M0,209.73v-2.16c7.6,0,14.03-2.43,19.59-7.43,5.4-4.85,8.11-10.94,8.11-18.1V43.74c0-7.16-2.71-13.31-8.11-18.1-5.49-4.87-11.99-7.29-19.59-7.29v-2.3h110.64v2.3c-7.6,0-14.02,2.43-19.43,7.29s-8.11,10.94-8.11,18.1v138.31c0,7.16,2.77,13.23,8.11,18.1,5.4,4.93,11.82,7.43,19.43,7.43v2.16H0Z"/>
  <path class="cls-1" d="M178.72,209.73v-2.16c7.6,0,14.02-2.5,19.43-7.43,5.34-4.87,8.28-10.94,8.28-18.1V18.35c-13.12.94-23.52,2.61-34.63,7.83-10.65,5.01-20.44,12.02-28.55,20.53-7.12,7.47-13.69,16.87-17.23,27.55h-2.7V16.05h221.47v58.21h-2.87c-3.38-10.71-9.97-20.08-17.06-27.55-8.14-8.57-17.85-15.52-28.55-20.53-11.11-5.2-21.54-6.88-34.63-7.83v163.7c0,7.16,2.7,13.24,8.11,18.1,5.57,5,11.99,7.43,19.6,7.43v2.16h-110.65Z"/>
  <path class="cls-1" d="M365.9,209.73v-2.16c7.6,0,14.19-2.5,19.6-7.43,5.34-4.87,8.11-10.94,8.11-18.1V43.74c0-7.16-2.7-13.24-8.11-18.1-5.41-4.86-11.99-7.29-19.6-7.29v-2.3h193.78v58.21h-2.87c-3.05-9.57-9.65-20-16.73-26.88-8.86-8.62-17.6-15.8-28.04-20.93-10.79-5.3-20.91-7.1-33.79-8.1h-29.23v93.73h31.76c12.62.07,25.5-1.64,37.17-6.48,10.28-4.27,15.54-9.59,15.54-15.67h2.7v46.46h-2.7c0-6.08-5.26-11.27-15.54-15.53-11.67-4.84-24.55-6.55-37.17-6.48h-31.76v93.19h29.23c12.88-1.05,22.94-2.92,33.79-8.24,10.47-5.13,20.04-12.26,28.04-20.8,6.88-7.35,13.39-16.46,16.73-26.88h2.87v58.08h-193.78Z"/>
  <path class="cls-1" d="M757.34,209.73v-2.16c7.6,0,14.14-4.92,19.6-14.18,6.06-10.27,7.26-21.79,8.11-33.49V22.54c-27.26,62.4-54.51,124.8-81.77,187.2h-13.68c-27.26-56.1-54.51-112.19-81.77-168.29v118.59c.21,11.66,2.49,23.68,8.28,33.77,5.25,9.14,11.83,13.78,19.43,13.78v2.16h-58.12v-2.16c7.6,0,14.14-4.92,19.6-14.18,6.06-10.27,7.26-21.79,8.11-33.49v-94.01c-.86-11.72-2.01-23.17-8.11-33.49-5.44-9.2-11.99-14.05-19.6-14.05v-2.3h75.85c23.15,47.68,46.29,95.35,69.43,143.03,20.78-47.68,41.56-95.36,62.34-143.03h82.95v2.3c-7.6,0-14.01,4.64-19.26,13.78-5.83,10.15-8.24,21.99-8.45,33.63v94.28c.21,11.68,2.6,23.58,8.45,33.77,5.25,9.14,11.66,13.78,19.26,13.78v2.16h-110.65Z"/>
  <path class="cls-1" d="M956.17,210.14c-12.08-2.13-23.93-5.63-35.47-9.32-9.73-3.11-16.05-4.86-19.09-4.86-2.87,0-5.07.75-6.59,2.03-1.45,1.22-2.69,2.73-3.38,4.59-.65,1.74-1.01,3.38-1.01,5h-3.55v-55.91h3.55c3.92,10.97,11.59,19.68,19.43,27.42,9.09,8.98,20.9,16.25,32.77,21.88,10.88,5.15,22.85,8.67,34.97,8.78,11.36.1,23.81-1.22,33.62-7.16,7.57-4.58,11.49-11.34,11.49-19.85,0-6.75-2.7-12.78-7.94-17.96-5.32-5.27-12.18-10.13-20.44-14.59-8.63-4.66-17.55-8.98-26.52-12.97-3.89-1.76-7.85-3.62-11.66-5.4-3.86-1.81-7.77-3.78-11.82-5.54-14.14-6.63-28.37-13.33-41.05-22.56-10.92-8.05-18.5-20.45-18.75-34.04-.18-9.37,4.27-21.41,10.47-28.5,7.96-9.09,18.72-15.69,30.07-19.85,14.66-5.38,30.77-7.53,46.29-7.43,7.72.05,14.9.73,21.12,1.89,9.88,1.85,20.32,5.27,29.56,9.32,7.42,3.25,12.5,4.73,15.54,4.73,2.87,0,5.07-.61,6.59-1.89,1.45-1.22,2.7-2.84,3.38-4.59s1.01-3.51,1.01-5h3.55v55.91h-3.55c-3.47-10.47-9.77-19.66-16.55-27.42-7.88-9.02-16.96-16.46-27.37-22.01-10.71-5.72-20.86-8.24-33.28-8.78-9.85-.42-18.96,1.47-25.51,4.32-6.4,2.79-11.42,6.64-14.53,11.34-3.06,4.63-4.56,9.86-4.56,15.4,0,6.75,2.28,12.56,6.93,17.42,4.56,4.78,10.47,9.18,17.91,13.1,16.8,8.63,34.18,15.91,51.69,22.96,8.11,3.24,16.09,6.6,23.82,10.13,7.58,3.47,14.53,7.43,20.61,11.89,11.62,8.42,20.08,22.14,20.1,36.47.01,8.57-3.68,20.11-9.29,26.88-7.46,9-18.49,15.1-29.39,18.91-16.25,5.67-34.46,6.83-51.52,7.02-7.52.09-14.7-.54-21.62-1.76Z"/>
</svg>