<?xml version="1.0" encoding="UTF-8"?>
<svg id="Layer_1" data-name="Layer 1" xmlns="http://www.w3.org/2000/svg" viewBox="0 0 142.25 86.93">
  <defs>
    <style>
      .cls-1 {
        fill: #ccc;
      }

      .cls-1, .cls-2, .cls-3 {
        stroke-width: 0px;
      }

      .cls-2 {
        fill: #000;
      }

      .cls-3 {
        fill: #fff;
      }
    </style>
  </defs>
  <g>
    <polygon class="cls-2" points="1.25 48.08 70.56 8.53 140.35 46.81 71.04 86.36 1.25 48.08"/>
    <path class="cls-3" d="M70.57,9.1l68.76,37.71-68.29,38.97L2.27,48.07,70.57,9.1M70.56,7.96L.45,47.96h-.45s.23.13.23.13l-.17.09h.33s70.65,38.75,70.65,38.75l70.1-40h.45s-.23-.13-.23-.13l.17-.09h-.33S70.56,7.96,70.56,7.96h0Z"/>
  </g>
  <g>
    <polygon class="cls-2" points="1.89 39.51 71.47 .57 141 39.47 71.42 78.4 1.89 39.51"/>
    <path class="cls-3" d="M71.47,1.15l68.5,38.33-68.56,38.36L2.92,39.51,71.47,1.15M71.47,0L1.1,39.38h-.45l.23.13-.17.09h.33l70.38,39.38,70.38-39.38h.45l-.23-.13.17-.09h-.33L71.47,0h0Z"/>
  </g>
  <g>
    <path class="cls-1" d="M25.97,40.27c-2.26-.03-3.39-.05-5.65-.09-2.14.03,6.15-2.81,10.3-5.88,1.4-1.04,4.56-3.09,9.39-6.03,6.97-4.25,10.08-5.03,8.99-2.51-1.67,3.84-2.54,5.66-4.36,9.08-3.44.6-5.17.89-8.62,1.48,1.91-2.28,2.83-3.5,4.62-6.11.14-.19-.18-.19-.95.04-.46.21-1.06.61-1.82,1.15-3.23,3.99-9.43,5.57-8.51,8.59.68,0,1.03.04,1.08.14-.16.12-.47.16-.64.2,2.26.03,3.4.04,5.66.07-.15.07-.22.12-.38.24.4,0,.61.01,1.01.02-.39.19-.58.28-.96.46.1.51.15.76.25,1.26,0,.05.35.23,1.04.56-.39-.04-.59-.07-.98-.11.54,2.55.85,3.7,1.57,5.76.56.45,1.06.78,1.51.99.85.28,1.26.33,1.24.19-.49-1.94-.7-2.99-1.06-5.26,3.42.57,5.14.85,8.57,1.41.08,3.41.15,5.01.38,8,.16,1.97-3.31.81-10.24-3.42-4.69-2.87-7.39-4.51-7.98-5.07-1.35-1.29-1.95-2.12-3.01-4.19-.25-.1-.37-.14-.62-.23.4-.01.6-.02,1-.03-.46-.24-.87-.35-1.25-.37.2-.07.3-.1.51-.18-.04-.08-.06-.13-.11-.16ZM25.01,40.5c.05.08.07.12.12.2-.43-.02-.64-.03-1.06-.05.02-.12.34-.17.94-.15Z"/>
    <path class="cls-1" d="M89,39.78c2.28,0,3.43,0,5.71,0-1.8,2.22-1.52,3.5-2.57,6.09-.07.19-.28.31-.64.37.14.18.21.27.35.44-.9,2.27-1.34,3.44-2.19,5.84-.06.2-.26.36-.6.47.13.16.2.23.33.38-.33.93-.5,1.4-.82,2.35-.39.68-.59,1.02-.98,1.72.32-.15.46-.14.4.05-.19.09-.29.14-.48.24.12.15.19.23.31.38-.09.25-.13.37-.22.61-.26.34-.39.51-.65.85.19-.1.29-.16.48-.26-.43.57-.69.97-.78,1.2-2.89,1.65-4.34,2.48-7.23,4.15,1.85-9.36,2.88-13.73,5.19-21.86.26-.99.5-1.9.94-3.02-.66,0-.99,0-1.65,0-.46.71-.69,1.04-.9,1.18.11.23.18.39.3.65-.26.27-.4.4-.66.67.2-.01.3-.02.51-.03-4.89,8.06-7.32,17.09-10.04,26.05-2.36,1.37-3.54.11-5.89-1.2-.82-.45-1.02-9.83-2.83-25.09-.09-.73-.26-1.35-.38-2.04-.64,0-.95.01-1.59.02-.05,1.22-.14,2.22-.27,3.3-.91,8.63-1.25,12.63-1.7,20.03-3.07-1.72-4.6-2.58-7.66-4.31-.13-6.8,2.36-10.47.52-18.92-2.27.02-3.4.03-5.66.04-1.15-4.56,2.97-6.85,4.85-12.04.06-.19.27-.35.6-.47-.13-.16-.2-.23-.32-.38,1.03-2.86,1.52-4.33,2.47-7.38.21-.45.56-.83,1.06-1.13,3.6-2.15,5.4-3.24,8.99-5.41.88-.39,1.32-.58,2.2-.95-.02.15-.03.22-.05.37-.36.21-.54.31-.9.52.45,10.87.44,19.96.69,26.67.98-.01,1.47-.02,2.44-.03,1.55-5.79,3.64-11.68,5.7-16.6,1.28-4.15,1.86-6.07,2.91-9.59,4.13,2.41,6.19,3.63,10.31,6.07.6.41.91.73.91.99.12,6.84,2.49,10.53-.48,19.01ZM58.31,40.05c-2.81-5.39-.02-8.74.55-10.8-.21.05-.31.08-.52.13-.15.53-.22.79-.37,1.31-.26,3.51-2.05,6.57-1.25,9.37.63,0,.95,0,1.59-.02ZM58.18,28.24c-.06.25-.09.38-.16.63.19-.05.28-.08.47-.13.06-.26.09-.38.15-.64-.19.05-.28.08-.47.13ZM75.34,39.83c-.98,0-1.47,0-2.44.02-.03,4.44-.17,7.68-.49,10.08-.24,1.61-.35,2.43-.58,4.07.19-.05.28-.07.47-.12.67-4.84,1.63-9.49,3.04-14.05ZM79.84,39.81c.94-3.1,1.47-6.51,2.5-10.2.04-.24.05-.37.09-.61-.21-.05-.31-.07-.52-.12-1.5,5.08-2.69,8.92-3.72,10.93.66,0,.99,0,1.65,0Z"/>
    <path class="cls-1" d="M116.68,39.94c2.26.03,3.4.04,5.66.07,1.11-.01-3.08,1.31-5.35,2.6-.14.07-.05.07.27,0-.32.12-.48.18-.79.3-.28.16-.41.24-.69.41-.1.06,0,.05.31-.03-.31.13-.47.19-.78.33-.06.04-.1.06-.16.11-.16.09-.07.1.28,0-.16.09-.24.13-.4.22-.16.04-.24.06-.4.1-.06.04-.1.06-.16.11.07-.02.19-.05.36-.1-.5.28-.75.42-1.25.72-.04.02-.06.02-.1.04-.16.11-.25.17-.41.29-1.09.68-1.62,1.05-2.67,1.82-1.19.76-2.72,1.7-4.62,2.76-5.41,3-8.11,4.5-13.52,7.52,2.06-5.07,3.16-7.44,5.47-11.84-.41.07-.61.11-1.02.18.04-.1.07-.15.11-.24.11-.15.77-.85,2.03-1.97.84-1.51,2.11-2.57,1.96-3.5-2.27-.01-3.4-.02-5.69-.02.94-1.16,0-1.74,0-2.96-.42-.04-.63-.05-1.05-.09,0-.1,0-.15-.01-.26.7-.33,1.04-.51,1.02-.6.01-.19.02-.28.03-.46-.41.04-.61.06-1.02.1,0-.19-.01-.29-.02-.48.41.05.62.08,1.03.14,0-.09,0-.13-.01-.22-1.01-.14-1.52-.45-1.54-.92.19.03.29.05.48.08.41.15.62.23,1.03.38-.08-4.82-.19-7.03-.57-11.03,2.84,1.66,4.26,2.5,7.09,4.17.31.18.45.23.42.15.37.26.56.39.93.65.35.21.53.31.89.52.86.47,1.28.71,2.14,1.2.02.04.03.06.05.1.31.18.45.25.41.18,4.09,2.46,6.53,3.94,7.27,4.63-.18-.08-.26-.12-.44-.2.05.05.23.14.52.27-.05.04-.08.07-.13.13.21.22.31.34.52.58.1.14.3.26.61.36-.04.1-.06.15-.11.27.88,1.21,1.04,2.92,2.04,3.45ZM104.32,39.83c1.29,0,1.94.01,3.23.02-.98-2.19-1.08-5.48-2.1-8.37-.07-.17-.41-.39-1.03-.67-.19-.09-.29-.13-.49-.22.04.11.06.16.1.27-.18-.08-.26-.12-.44-.19-.06-.27-.4-.55-1.02-.83.09.34.13.51.21.86,0,.09.15.2.44.32-.14.05-.21.07-.36.12.02.09.19.2.49.31-.14.05-.22.08-.36.14.03.18.05.27.08.46.02.1.19.2.49.3-.15.06-.23.09-.38.16.05.29.08.44.12.74.58.16.86.24,1.44.4.02.06.03.1.05.16-.58-.16-.87-.23-1.45-.39.45,2.4.46,4.69.96,6.42ZM105.33,45.74c-.08.11-.39.32-.91.65.19-.05.28-.08.47-.13-.29.19-.44.29-.73.49-.89,1.17-1.32,1.77-2.18,3.01.3-.13.51-.26.63-.4.31-.07.46-.1.76-.18.38-.16.57-.24.94-.39.48-.44.72-.66,1.22-1.07.63-.74.94-1.11,1.58-1.81-1.08.23-1.69.35-1.83.39.57-.32.86-.48,1.44-.78-.35.09-.81.17-1.39.23ZM104.37,46.97c.21-.06.31-.09.52-.16-.13.15-.19.22-.31.37-.2.07-.31.1-.51.16.12-.15.19-.22.31-.37ZM109.99,39.87c.58.95-2.43,2.63-4.16,4.75.41-.08.61-.12,1.01-.2-.05.07-.08.1-.14.17-.59.28-.88.43-1.45.73-.05.07-.08.11-.13.18.45-.17.68-.25,1.14-.41.19-.04.29-.07.48-.11-.3.17-.45.26-.74.44.49-.12,1.07-.17,1.72-.18.16-.18.25-.28.41-.46.01-.35.01-.52.01-.89.35,0,.52-.02.87-.03,1.77-1.8,4.87-3.29,4.21-3.97-1.29-.01-1.94-.02-3.23-.03ZM104.77,46.43c.21-.06.31-.09.52-.15-.11.14-.16.21-.26.35-.21.06-.31.09-.52.15.1-.14.16-.21.26-.35ZM104.07,48.26c.2-.08.3-.11.5-.19-.1.14-.16.21-.26.35-.2.08-.3.12-.5.2.1-.14.15-.21.26-.35ZM106.58,44.19c.41-.08.61-.11,1.02-.19-.06.07-.09.1-.14.17-.41.08-.61.12-1.02.2.06-.07.08-.11.14-.18ZM107.26,44.87c.19-.04.29-.07.48-.11-.11.13-.16.19-.27.32-.19.05-.28.07-.47.12.11-.13.16-.19.27-.32ZM107.06,45.54c-.08.07-.12.11-.19.18.34-.05.51-.07.86-.12.21-.06.31-.09.52-.15.05-.06.08-.09.14-.14-.35.09-.78.18-1.32.23Z"/>
  </g>
</svg>