<?xml version="1.0" encoding="UTF-8"?>
<svg id="Layer_1" data-name="Layer 1" xmlns="http://www.w3.org/2000/svg" viewBox="0 0 1068 225.79">
  <defs>
    <style>
      .cls-1 {
        fill: #fff;
        stroke-width: 0px;
      }
    </style>
  </defs>
  <path class="cls-1" d="M0,209.73v-2.16c9.03,0,16.66-2.43,23.27-7.43,6.42-4.85,9.63-10.94,9.63-18.1V43.74c0-7.16-3.22-13.32-9.63-18.1-6.53-4.87-14.24-7.29-23.27-7.29v-2.3h131.38v2.3c-9.03,0-16.65,2.43-23.07,7.29s-9.63,10.94-9.63,18.1v163.83h34.7c13.77,0,27.44-2.93,40.12-8.24,12.12-5.07,24.09-12.04,33.3-20.8,7.91-7.52,15.7-16.09,19.86-26.88h3.41v58.07H0Z"/>
  <path class="cls-1" d="M318.95,199.47c-18.73-7.34-37.96-18.88-49.95-34.71-11.91-15.72-18.26-32.77-18.25-51.87,0-19.05,6.37-36.05,18.25-51.73,12.01-15.85,31.17-27.48,49.95-34.85,22.95-9,47.44-12.42,71.42-12.42,24.03,0,48.62,3.57,71.62,12.42,18.9,7.28,38.01,19.24,49.95,34.85,11.88,15.52,18.25,32.87,18.26,51.73,0,18.91-6.35,36.3-18.26,51.87-11.93,15.58-31.18,27.48-49.95,34.71-22.88,8.81-47.58,12.42-71.62,12.42-23.98,0-48.5-3.44-71.42-12.42ZM445.93,184.75c15.22-20.65,18.46-47.54,18.46-71.85,0-24.34-3.3-51.21-18.46-71.85-12.93-17.61-34.27-24.99-55.57-24.98-21.24,0-42.37,7.42-55.37,24.98-15.3,20.68-18.45,47.53-18.46,71.85,0,24.3,3.09,51.17,18.46,71.85,13.06,17.57,34.13,24.98,55.37,24.98,21.3,0,42.58-7.37,55.57-24.98Z"/>
  <path class="cls-1" d="M774.53,209.73c-8.88.27-19.64-1.13-27.88-4.73-7.42-3.24-13.41-7.44-17.86-12.56-4.43-5.1-8.01-11.11-10.83-17.42-2.77-6.2-5.15-12.82-7.22-19.18-2.27-6.95-5.02-13.64-7.82-19.72-2.81-6.08-6.62-10.94-11.43-14.72s-11.43-5.67-19.86-5.67h-27.08v66.32c0,7.16,3.28,13.23,9.63,18.1,6.41,4.92,14.04,7.43,23.07,7.43v2.16h-131.4v-2.16c9.03,0,16.66-2.43,23.27-7.43,6.42-4.85,9.63-10.94,9.63-18.1V43.74c0-7.16-3.22-13.32-9.63-18.1-6.54-4.87-14.24-7.29-23.27-7.29v-2.3h152.06c19.38.31,39.34.99,57.58,6.48,12.46,3.75,24.98,8.89,34.7,17.96,6.56,6.12,11.64,17.89,11.64,26.74,0,14.36-10.69,27.04-22.87,33.77-20.25,11.17-44.5,13.08-67.2,14.45v.54c14.99,2.39,31.93,6,43.93,14.86,9.99,7.37,16.37,14.56,23.47,25.26,3.41,5.81,6.42,11.75,9.43,17.96,2.81,5.81,5.57,11.37,8.43,16.34,2.85,4.95,6.02,9.05,9.43,12.29,3.41,3.24,7.22,4.86,11.43,4.86v2.16h-43.33ZM724.18,99.39c8.8-8.1,11.85-20.64,11.84-32.15-.01-12-3.17-25.04-12.04-33.63-14.46-14-37.77-14.73-56.77-15.26h-22.67v95.08h22.67c18.59-.46,42.33-.58,56.97-14.05Z"/>
  <path class="cls-1" d="M837.92,209.73v-2.16c9.03,0,16.86-2.51,23.27-7.43,6.35-4.87,9.63-10.94,9.63-18.1V43.74c0-7.16-3.21-13.24-9.63-18.1s-14.24-7.29-23.27-7.29v-2.3h230.08v58.21h-3.41c-4.16-10.82-11.9-19.28-19.86-26.88-9.26-8.84-21.22-15.83-33.3-20.93-12.61-5.33-26.36-8.11-40.12-8.1h-34.7v93.73h37.71c15.07-.49,29.82-1.49,44.13-6.48,12.21-4.26,18.45-9.59,18.45-15.67h3.21v46.46h-3.21c0-6.08-6.25-11.27-18.45-15.53-14.31-4.99-29.05-5.99-44.13-6.48h-37.71v93.19h34.7c13.77,0,27.44-2.93,40.12-8.24,12.12-5.07,24.09-12.04,33.3-20.8,7.91-7.52,15.7-16.09,19.86-26.88h3.41v58.07h-230.08Z"/>
</svg>